<svg id="Layer_1" xmlns="http://www.w3.org/2000/svg" xmlns:xlink="http://www.w3.org/1999/xlink"
     viewBox="0 0 453.95 453.95">
    <defs>
        <style>
            .cls-1{fill:url(#linear-gradient);}.cls-2{fill:url(#linear-gradient-2);}.cls-3{fill:url(#linear-gradient-3);}.cls-4{fill:url(#linear-gradient-4);}.cls-5{fill:url(#linear-gradient-5);}.cls-6{fill:url(#linear-gradient-6);}.cls-7{fill:url(#linear-gradient-7);}.cls-8{fill:url(#linear-gradient-8);}
        </style>
        <linearGradient id="linear-gradient" x1="614.55" y1="383.52" x2="850.6" y2="383.52"
                        gradientTransform="translate(844.93 1258.08) rotate(-135)" gradientUnits="userSpaceOnUse">
            <stop offset="0" stop-color="#05a679"/>
            <stop offset="1" stop-color="#50c1a1"/>
        </linearGradient>
        <linearGradient id="linear-gradient-2" x1="682.04" y1="254.04" x2="783.1" y2="254.04"
                        gradientTransform="matrix(0, -1, 1, 0, 252.52, 1293.01)" xlink:href="#linear-gradient"/>
        <linearGradient id="linear-gradient-3" x1="583.06" y1="254.04" x2="684.11" y2="254.04"
                        gradientTransform="translate(1493.02 814.49) rotate(-180)" gradientUnits="userSpaceOnUse">
            <stop offset="0" stop-color="#c90b33"/>
            <stop offset="1" stop-color="#d95470"/>
        </linearGradient>
        <linearGradient id="linear-gradient-4" x1="520.1" y1="385.79" x2="756.15" y2="385.79"
                        gradientTransform="translate(1487.08 292.07) rotate(135)" xlink:href="#linear-gradient-3"/>
        <linearGradient id="linear-gradient-5" x1="515.56" y1="289.07" x2="751.6" y2="289.07"
                        gradientTransform="translate(521.07 -350.09) rotate(45)" gradientUnits="userSpaceOnUse">
            <stop offset="0" stop-color="#28b6dc"/>
            <stop offset="1" stop-color="#68cce6"/>
        </linearGradient>
        <linearGradient id="linear-gradient-6" x1="583.05" y1="155.05" x2="684.11" y2="155.05"
                        gradientTransform="translate(1014.5 -426.02) rotate(90)" xlink:href="#linear-gradient-5"/>
        <linearGradient id="linear-gradient-7" x1="610.01" y1="286.8" x2="846.05" y2="286.8"
                        gradientTransform="translate(-121.08 615.92) rotate(-45)" gradientUnits="userSpaceOnUse">
            <stop offset="0" stop-color="#f6b604"/>
            <stop offset="1" stop-color="#f9cc4f"/>
        </linearGradient>
        <linearGradient id="linear-gradient-8" x1="682.05" y1="155.04" x2="783.1" y2="155.04"
                        gradientTransform="translate(-226.01 52.51)" xlink:href="#linear-gradient-7"/>
    </defs>
    <path class="cls-1"
          d="M495.49,404.6A185.16,185.16,0,0,0,662.39,571.51v-38a146.37,146.37,0,0,1-49.19-14.86l40.45-10.84,17.29-64.53L623.7,396.05l-64.53,17.29L548.34,453.8a146.38,146.38,0,0,1-14.86-49.19Z"
          transform="translate(-456.03 -157.03)"/>
    <circle class="cls-2" cx="506.55" cy="560.45" r="50.53" transform="translate(-703.96 365.31) rotate(-45)"/>
    <circle class="cls-3" cx="859.45" cy="560.45" r="50.53" transform="translate(-600.59 614.86) rotate(-45)"/>
    <path class="cls-4"
          d="M712.35,507.82l36.22,9.7a146.32,146.32,0,0,1-51.38,16v38A185.15,185.15,0,0,0,864.09,404.6h-38a146.31,146.31,0,0,1-10.78,40.45l-8.5-31.71-64.53-17.29-47.24,47.24Z"
          transform="translate(-456.03 -157.03)"/>
    <path class="cls-5"
          d="M697.18,202.91v38a146.4,146.4,0,0,1,42.89,11.85l-27.73,7.43-17.29,64.53,47.24,47.24,64.53-17.29,7.43-27.73a146.41,146.41,0,0,1,11.85,42.89h38A185.15,185.15,0,0,0,697.18,202.91Z"
          transform="translate(-456.03 -157.03)"/>
    <circle class="cls-6" cx="859.45" cy="207.55" r="50.52" transform="translate(-351.06 511.49) rotate(-45)"/>
    <path class="cls-7"
          d="M533.47,369.82a146.39,146.39,0,0,1,16-51.38l9.71,36.22,64.53,17.29,47.24-47.24-17.29-64.53-31.71-8.5a146.32,146.32,0,0,1,40.45-10.78v-38A185.16,185.16,0,0,0,495.49,369.82Z"
          transform="translate(-456.03 -157.03)"/>
    <circle class="cls-8" cx="506.55" cy="207.55" r="50.53" transform="translate(-454.42 261.95) rotate(-45)"/>
</svg>
