<svg id="Layer_1" xmlns="http://www.w3.org/2000/svg" viewBox="0 0 646.93 646.93"><defs><style>.cls-1{fill:#212328;}.cls-2{fill:#fff;}</style></defs><title>circuts</title><path class="cls-1" d="M1006.47,384a33.31,33.31,0,0,1-.6,7.4c.6,1.23,0,3.07,0,4.3a173.7,173.7,0,0,1-1.26,19.11,82.21,82.21,0,0,1-2.46,13.54,17.48,17.48,0,0,1-.6,5.56c-.6,8-2.46,14.77-3.07,20.94a52.55,52.55,0,0,1-3.07,10.47,50.29,50.29,0,0,1-3.73,13.57A291.88,291.88,0,0,1,978.73,514c0,.6-.6.6-.6,1.21a41.31,41.31,0,0,1-4.93,10.47c-1.21,3.73-3.67,7.4-5.54,11.07a295.1,295.1,0,0,1-38.21,56.74c-6.14,6.14-11.73,12.93-17.27,18.47C853.64,670.52,773,707.47,683,707.47c-127.53,0-237.82-74.55-290.19-181.77A50.07,50.07,0,0,1,387.27,514a275.15,275.15,0,0,1-13.57-35.14,104.71,104.71,0,0,1-3.07-13.57,186.81,186.81,0,0,1-7.4-37l-1.87-13.54a98.53,98.53,0,0,1-1.23-23.41,30.73,30.73,0,0,1-.6-7.4,21.37,21.37,0,0,1,.6-6.17,105.81,105.81,0,0,1,1.23-24,94.55,94.55,0,0,1,1.23-12.93,156.51,156.51,0,0,1,8-37.58,33.3,33.3,0,0,1,3.07-12.93,237.9,237.9,0,0,1,13.57-37c1.83-3.7,3.07-8,5.54-11.1C445.18,134.45,555.47,60.53,683,60.53c90,0,170.64,36.34,229.85,94.89,5.53,5.54,11.07,12.3,16.6,18.47,15.4,18.5,28.94,37.58,39.41,58.54,1.87,3.07,3.13,6.77,4.94,9.84,1.87,3.7,3.07,7.4,5.54,11.1V254a354,354,0,0,1,12.93,36.34,100.66,100.66,0,0,1,3.13,12.93,76.09,76.09,0,0,1,3.07,11.1c1.2,6.14,2.47,13.54,3.67,20.94a16,16,0,0,1,.66,5.54,47.91,47.91,0,0,1,1.81,12.93c.67,6.8,1.26,14.17,1.26,21,0,1.23.6,1.84,0,3.07A19.35,19.35,0,0,1,1006.47,384Z" transform="translate(-359.53 -60.53)"/><path class="cls-2" d="M1004.6,353.79H916.51l-32.07-31.4H809.9V308.82h80.74l31.41,32h80.74A47.91,47.91,0,0,1,1004.6,353.79Z" transform="translate(-359.53 -60.53)"/><path class="cls-2" d="M1004.6,414.81a82.21,82.21,0,0,1-2.46,13.54H912.85l-31.47,31.44H800.69V446.85h75.15l31.4-32Z" transform="translate(-359.53 -60.53)"/><path class="cls-2" d="M1006.47,384a33.31,33.31,0,0,1-.6,7.4H864.77V377.83h141.09A19.35,19.35,0,0,1,1006.47,384Z" transform="translate(-359.53 -60.53)"/><path class="cls-2" d="M995.39,303.28H892.51l-37-37-3.67-3.7,9.2-9.24,4.94,4.3L898,290.35h94.22A100.66,100.66,0,0,1,995.39,303.28Z" transform="translate(-359.53 -60.53)"/><path class="cls-2" d="M995.39,465.32a50.29,50.29,0,0,1-3.73,13.57H908.51l-32.67,32-4.94,4.94-9.2-9.2,4.94-4.94,35.68-36.37Z" transform="translate(-359.53 -60.53)"/><path class="cls-2" d="M805.62,446.85c-2.46-9.87-11.73-16-22.2-16-13.54,0-24.61,10.47-24.61,24a24.55,24.55,0,0,0,48.61,4.94v-4.94C807.43,452.38,807.43,449.31,805.62,446.85Zm-22.2,21.57a13.58,13.58,0,1,1,0-27.13,13.57,13.57,0,0,1,0,27.13Z" transform="translate(-359.53 -60.53)"/><path class="cls-2" d="M867.84,377.83A23.19,23.19,0,0,0,845,360a24.65,24.65,0,0,0,0,49.31,23.19,23.19,0,0,0,22.8-17.87c1.2-2.46,1.2-4.33,1.2-6.8S869,380.3,867.84,377.83ZM845,398.17A13.8,13.8,0,0,1,830.9,384.6,14.32,14.32,0,0,1,845,370.43c7.4,0,13.54,6.8,13.54,14.16A13.66,13.66,0,0,1,845,398.17Z" transform="translate(-359.53 -60.53)"/><path class="cls-2" d="M991.85,514.15c-3.55,3.85-7,7.76-10.65,11.31H938.78V514.15Z" transform="translate(-359.53 -60.53)"/><path class="cls-2" d="M940.52,515.23c0-.6,0-.6-.6-1.21-1.87-6.8-8.6-11.13-15.4-11.13-9.86,0-17.87,7.4-17.87,17.26,0,9.27,8,17.27,17.87,17.27a16.46,16.46,0,0,0,15.4-11.73c.6-.6.6-.6.6-1.2.66-1.27.66-2.47.66-4.34A12.74,12.74,0,0,0,940.52,515.23Zm-16,14.2c-5.53,0-9.86-4.33-9.86-9.27a9.76,9.76,0,0,1,9.86-9.86,10.15,10.15,0,0,1,9.87,9.86C934.39,525.09,929.45,529.43,924.52,529.43Z" transform="translate(-359.53 -60.53)"/><path class="cls-2" d="M979.33,253.37H938.72v-11.1h35.08C975.66,246,976.86,249.67,979.33,253.37Z" transform="translate(-359.53 -60.53)"/><path class="cls-2" d="M941.18,243.51a2.17,2.17,0,0,0-.66-1.23,16.45,16.45,0,0,0-16-11.7c-9.86,0-17.87,8-17.87,17.27,0,9.84,8,17.24,17.87,17.24,7.4,0,13.54-4.93,16-11.7a2.06,2.06,0,0,0,.66-1.23c0-1.23.6-2.47.6-4.3S941.18,244.74,941.18,243.51Zm-16.67,14.17a9.85,9.85,0,1,1,0-19.71,9.85,9.85,0,1,1,0,19.71Z" transform="translate(-359.53 -60.53)"/><path class="cls-2" d="M817.3,308.82a24.45,24.45,0,0,0-24-19.11,24.76,24.76,0,0,0-24.67,24.67c0,12.94,11.13,24,24.67,24,10.47,0,19.74-6.77,22.81-16a19.46,19.46,0,0,0,1.86-8C818,312.52,817.3,310.68,817.3,308.82Zm-24,19.1c-7.4,0-14.2-6.77-14.2-13.54a14.33,14.33,0,0,1,14.2-14.17c7.41,0,13.54,6.14,13.54,14.17C806.83,321.16,800.69,327.92,793.29,327.92Z" transform="translate(-359.53 -60.53)"/><path class="cls-2" d="M845,220.1c-12.94,0-24.61,11.1-24.61,24.64s11.67,24,24.61,24a20,20,0,0,0,10.47-2.47c4.33-1.83,7.4-4.93,10.47-8.63,1.87-3.67,3.73-8,3.73-12.94A24.76,24.76,0,0,0,845,220.1ZM831.5,244.74c0-8,6.14-14.17,13.54-14.17a14.36,14.36,0,0,1,14.2,14.17c0,7.4-6.8,13.57-14.2,13.57A13.66,13.66,0,0,1,831.5,244.74Z" transform="translate(-359.53 -60.53)"/><path class="cls-2" d="M875.84,510.89a22.31,22.31,0,0,0-9.2-9.2,25.49,25.49,0,0,0-11.74-3.07c-13.54,0-24,11.07-24,24.61s10.47,24.67,24,24.67a24.78,24.78,0,0,0,24.67-24.67A22.33,22.33,0,0,0,875.84,510.89ZM854.9,536.77a13.64,13.64,0,0,1-13.54-13.54,13.26,13.26,0,0,1,13.54-13.54c8,0,14.14,5.54,14.14,13.54C869,530.63,862.9,536.77,854.9,536.77Z" transform="translate(-359.53 -60.53)"/><path class="cls-2" d="M557.31,308.82v13.57H482.16l-31.44,31.4H361.37a94.55,94.55,0,0,1,1.23-12.93h82.58l31.41-32Z" transform="translate(-359.53 -60.53)"/><polygon class="cls-2" points="1.83 354.27 100.42 354.27 131.86 386.31 201.47 386.31 206.41 386.31 206.41 399.25 200.24 399.25 126.29 399.25 94.25 367.81 3.7 367.81 1.83 354.27"/><path class="cls-2" d="M502.46,377.83V391.4H360.14a30.73,30.73,0,0,1-.6-7.4,21.37,21.37,0,0,1,.6-6.17Z" transform="translate(-359.53 -60.53)"/><path class="cls-2" d="M514.8,262.61l-40.67,40.67H370.63a33.3,33.3,0,0,1,3.07-12.93h94.89l32.64-32.67,4.33-4.3Z" transform="translate(-359.53 -60.53)"/><path class="cls-2" d="M504.93,506.62l-9.24,9.2-4.93-4.94-32-32h-85a104.71,104.71,0,0,1-3.07-13.57h93.65l36.34,36.37Z" transform="translate(-359.53 -60.53)"/><path class="cls-2" d="M583.81,430.81c-10.47,0-19.73,6.17-22.8,16a18.91,18.91,0,0,0-1.84,8,13.94,13.94,0,0,0,.6,4.94c2.46,11.1,12.33,19.7,24,19.7a24.71,24.71,0,0,0,24.64-24.64C608.45,441.28,597.35,430.81,583.81,430.81Zm0,37.61c-7.4,0-14.16-6.17-14.16-13.57s6.77-13.57,14.16-13.57a13.57,13.57,0,0,1,0,27.13Z" transform="translate(-359.53 -60.53)"/><path class="cls-2" d="M522.2,360c-11.1,0-21,7.41-23.44,17.87a19.71,19.71,0,0,0,0,13.57c2.47,10.47,12.33,17.87,23.44,17.87a24.65,24.65,0,0,0,0-49.31Zm0,38.21c-7.4,0-14.17-6.17-14.17-13.57s6.77-14.16,14.17-14.16,13.54,6.8,13.54,14.16A13.68,13.68,0,0,1,522.2,398.17Z" transform="translate(-359.53 -60.53)"/><path class="cls-2" d="M427.91,514V525.7H392.81A50.07,50.07,0,0,1,387.27,514Z" transform="translate(-359.53 -60.53)"/><path class="cls-2" d="M442.72,502.89c-7.4,0-14.17,4.33-16,11.13-.6.6-.6.6-.6,1.21,0,1.86-.63,3.07-.63,4.93s.63,3.07.63,4.34c0,.6,0,.6.6,1.2,1.87,6.8,8.63,11.73,16,11.73A17.22,17.22,0,0,0,460,520.16,16.85,16.85,0,0,0,442.72,502.89Zm0,26.53c-5.57,0-9.87-4.33-9.87-9.27a9.85,9.85,0,1,1,19.71,0A9.62,9.62,0,0,1,442.72,529.43Z" transform="translate(-359.53 -60.53)"/><path class="cls-2" d="M375.12,253.52h53.07V242.21H385.41A152.9,152.9,0,0,0,375.12,253.52Z" transform="translate(-359.53 -60.53)"/><path class="cls-2" d="M442.72,230.57a16.48,16.48,0,0,0-16,11.7,2.23,2.23,0,0,0-.6,1.23c-.63,1.23-.63,2.47-.63,4.33a8.91,8.91,0,0,0,.63,4.3,2.11,2.11,0,0,0,.6,1.23,17.25,17.25,0,0,0,16,11.7A16.85,16.85,0,0,0,460,247.84,17.24,17.24,0,0,0,442.72,230.57Zm0,27.11a9.85,9.85,0,1,1,9.84-9.84A9.72,9.72,0,0,1,442.72,257.68Z" transform="translate(-359.53 -60.53)"/><path class="cls-2" d="M573.95,289.71c-12.33,0-22.17,8-24,19.11,0,1.86-.6,3.7-.6,5.56a35,35,0,0,0,1.23,8,24.91,24.91,0,0,0,23.41,16,24,24,0,0,0,24-24C598,300.82,587.51,289.71,573.95,289.71Zm0,38.21c-8,0-14.17-6.77-14.17-13.54a13.93,13.93,0,0,1,14.17-14.17c7.4,0,13.57,6.14,13.57,14.17C587.51,321.16,581.35,327.92,573.95,327.92Z" transform="translate(-359.53 -60.53)"/><path class="cls-2" d="M521.57,220.1c-13.54,0-24,11.1-24,24.64a22.67,22.67,0,0,0,3.67,12.94,26.27,26.27,0,0,0,9.87,8.63,20,20,0,0,0,10.47,2.47c13.57,0,24.64-10.47,24.64-24A24.71,24.71,0,0,0,521.57,220.1Zm0,38.21A13.66,13.66,0,0,1,508,244.74c0-8,6.14-14.17,13.54-14.17a13.87,13.87,0,1,1,0,27.74Z" transform="translate(-359.53 -60.53)"/><path class="cls-2" d="M511.73,498.62a22.91,22.91,0,0,0-11.1,3.07c-4.3,1.81-7.4,5.54-9.87,9.2-1.83,3.73-3.7,8-3.7,12.33a24.65,24.65,0,1,0,24.67-24.61Zm0,38.15a13.66,13.66,0,0,1-13.57-13.54,13.28,13.28,0,0,1,13.57-13.54c7.37,0,14.17,5.54,14.17,13.54C525.9,530.63,519.1,536.77,511.73,536.77Z" transform="translate(-359.53 -60.53)"/></svg>
